<svg xmlns="http://www.w3.org/2000/svg" viewBox="0 0 700 580" font-family="ui-serif, Georgia, serif">
  <rect width="700" height="580" fill="#0A0A0B"/>
  <rect width="700" height="580" fill="#D4B896" opacity="0.04"/>

  <!-- Title -->
  <text x="350" y="32" text-anchor="middle" fill="#EDEDED" font-size="18" font-style="italic">Pi 4 · 40-pin GPIO Header（按功能配色）</text>
  <line x1="200" y1="42" x2="500" y2="42" stroke="#C8623A" stroke-width="1" opacity="0.4"/>

  <!-- Legend -->
  <g transform="translate(40, 60)">
    <text x="0" y="0" fill="#888" font-size="10" font-style="italic">图例：</text>
    <rect x="50" y="-10" width="14" height="14" fill="#FF6B6B"/>
    <text x="70" y="0" fill="#EDEDED" font-size="10">5V</text>
    <rect x="100" y="-10" width="14" height="14" fill="#fdba74"/>
    <text x="120" y="0" fill="#EDEDED" font-size="10">3.3V</text>
    <rect x="160" y="-10" width="14" height="14" fill="#444"/>
    <text x="180" y="0" fill="#EDEDED" font-size="10">GND</text>
    <rect x="220" y="-10" width="14" height="14" fill="#7FBF6E"/>
    <text x="240" y="0" fill="#EDEDED" font-size="10">GPIO</text>
    <rect x="290" y="-10" width="14" height="14" fill="#fcd34d"/>
    <text x="310" y="0" fill="#EDEDED" font-size="10">总线 (I2C/SPI/UART)</text>
    <rect x="450" y="-10" width="14" height="14" fill="#888" opacity="0.4"/>
    <text x="470" y="0" fill="#EDEDED" font-size="10">EEPROM 预留</text>
  </g>

  <!-- Column headers -->
  <text x="220" y="105" text-anchor="middle" fill="#888" font-size="11" font-style="italic">物理 / BCM</text>
  <text x="480" y="105" text-anchor="middle" fill="#888" font-size="11" font-style="italic">BCM / 物理</text>

  <!-- Pin definitions: 20 pairs, alternating left + right -->
  <!-- Each pin is rendered as a colored rectangle + text -->

  <!-- Define pin layout. Left column = odd pins (1,3,5...39). Right column = even pins (2,4,6...40) -->

  <!-- Helper structure done inline; each row at y = 130 + 20*row, row 0-19 -->

  <!-- Row 0 (pin 1, 2) -->
  <g transform="translate(0, 120)">
    <!-- Left: pin 1 = 3.3V -->
    <rect x="240" y="0" width="80" height="18" fill="#fdba74"/>
    <text x="280" y="13" text-anchor="middle" fill="#0A0A0B" font-size="11" font-weight="bold">3.3V Power</text>
    <text x="328" y="13" text-anchor="start" fill="#888" font-size="10">1</text>
    <!-- Right: pin 2 = 5V -->
    <text x="372" y="13" text-anchor="end" fill="#888" font-size="10">2</text>
    <rect x="380" y="0" width="80" height="18" fill="#FF6B6B"/>
    <text x="420" y="13" text-anchor="middle" fill="#0A0A0B" font-size="11" font-weight="bold">5V Power</text>
  </g>

  <g transform="translate(0, 142)">
    <rect x="240" y="0" width="80" height="18" fill="#fcd34d"/>
    <text x="280" y="13" text-anchor="middle" fill="#0A0A0B" font-size="10">GPIO 2 (SDA)</text>
    <text x="328" y="13" text-anchor="start" fill="#888" font-size="10">3</text>
    <text x="372" y="13" text-anchor="end" fill="#888" font-size="10">4</text>
    <rect x="380" y="0" width="80" height="18" fill="#FF6B6B"/>
    <text x="420" y="13" text-anchor="middle" fill="#0A0A0B" font-size="11" font-weight="bold">5V Power</text>
  </g>

  <g transform="translate(0, 164)">
    <rect x="240" y="0" width="80" height="18" fill="#fcd34d"/>
    <text x="280" y="13" text-anchor="middle" fill="#0A0A0B" font-size="10">GPIO 3 (SCL)</text>
    <text x="328" y="13" text-anchor="start" fill="#888" font-size="10">5</text>
    <text x="372" y="13" text-anchor="end" fill="#888" font-size="10">6</text>
    <rect x="380" y="0" width="80" height="18" fill="#444"/>
    <text x="420" y="13" text-anchor="middle" fill="#EDEDED" font-size="11" font-weight="bold">GND</text>
  </g>

  <g transform="translate(0, 186)">
    <rect x="240" y="0" width="80" height="18" fill="#7FBF6E"/>
    <text x="280" y="13" text-anchor="middle" fill="#0A0A0B" font-size="11" font-weight="bold">GPIO 4</text>
    <text x="328" y="13" text-anchor="start" fill="#888" font-size="10">7</text>
    <text x="372" y="13" text-anchor="end" fill="#888" font-size="10">8</text>
    <rect x="380" y="0" width="80" height="18" fill="#fcd34d"/>
    <text x="420" y="13" text-anchor="middle" fill="#0A0A0B" font-size="10">GPIO 14 (TX)</text>
  </g>

  <g transform="translate(0, 208)">
    <rect x="240" y="0" width="80" height="18" fill="#444"/>
    <text x="280" y="13" text-anchor="middle" fill="#EDEDED" font-size="11" font-weight="bold">GND</text>
    <text x="328" y="13" text-anchor="start" fill="#888" font-size="10">9</text>
    <text x="372" y="13" text-anchor="end" fill="#888" font-size="10">10</text>
    <rect x="380" y="0" width="80" height="18" fill="#fcd34d"/>
    <text x="420" y="13" text-anchor="middle" fill="#0A0A0B" font-size="10">GPIO 15 (RX)</text>
  </g>

  <g transform="translate(0, 230)">
    <rect x="240" y="0" width="80" height="18" fill="#7FBF6E"/>
    <text x="280" y="13" text-anchor="middle" fill="#0A0A0B" font-size="11" font-weight="bold">GPIO 17</text>
    <text x="328" y="13" text-anchor="start" fill="#888" font-size="10">11</text>
    <text x="372" y="13" text-anchor="end" fill="#888" font-size="10">12</text>
    <rect x="380" y="0" width="80" height="18" fill="#7FBF6E"/>
    <text x="420" y="13" text-anchor="middle" fill="#0A0A0B" font-size="11" font-weight="bold">GPIO 18</text>
  </g>

  <g transform="translate(0, 252)">
    <rect x="240" y="0" width="80" height="18" fill="#7FBF6E"/>
    <text x="280" y="13" text-anchor="middle" fill="#0A0A0B" font-size="11" font-weight="bold">GPIO 27</text>
    <text x="328" y="13" text-anchor="start" fill="#888" font-size="10">13</text>
    <text x="372" y="13" text-anchor="end" fill="#888" font-size="10">14</text>
    <rect x="380" y="0" width="80" height="18" fill="#444"/>
    <text x="420" y="13" text-anchor="middle" fill="#EDEDED" font-size="11" font-weight="bold">GND</text>
  </g>

  <g transform="translate(0, 274)">
    <rect x="240" y="0" width="80" height="18" fill="#7FBF6E"/>
    <text x="280" y="13" text-anchor="middle" fill="#0A0A0B" font-size="11" font-weight="bold">GPIO 22</text>
    <text x="328" y="13" text-anchor="start" fill="#888" font-size="10">15</text>
    <text x="372" y="13" text-anchor="end" fill="#888" font-size="10">16</text>
    <rect x="380" y="0" width="80" height="18" fill="#7FBF6E"/>
    <text x="420" y="13" text-anchor="middle" fill="#0A0A0B" font-size="11" font-weight="bold">GPIO 23</text>
  </g>

  <g transform="translate(0, 296)">
    <rect x="240" y="0" width="80" height="18" fill="#fdba74"/>
    <text x="280" y="13" text-anchor="middle" fill="#0A0A0B" font-size="11" font-weight="bold">3.3V Power</text>
    <text x="328" y="13" text-anchor="start" fill="#888" font-size="10">17</text>
    <text x="372" y="13" text-anchor="end" fill="#888" font-size="10">18</text>
    <rect x="380" y="0" width="80" height="18" fill="#7FBF6E"/>
    <text x="420" y="13" text-anchor="middle" fill="#0A0A0B" font-size="11" font-weight="bold">GPIO 24</text>
  </g>

  <g transform="translate(0, 318)">
    <rect x="240" y="0" width="80" height="18" fill="#fcd34d"/>
    <text x="280" y="13" text-anchor="middle" fill="#0A0A0B" font-size="10">GPIO 10 (MOSI)</text>
    <text x="328" y="13" text-anchor="start" fill="#888" font-size="10">19</text>
    <text x="372" y="13" text-anchor="end" fill="#888" font-size="10">20</text>
    <rect x="380" y="0" width="80" height="18" fill="#444"/>
    <text x="420" y="13" text-anchor="middle" fill="#EDEDED" font-size="11" font-weight="bold">GND</text>
  </g>

  <g transform="translate(0, 340)">
    <rect x="240" y="0" width="80" height="18" fill="#fcd34d"/>
    <text x="280" y="13" text-anchor="middle" fill="#0A0A0B" font-size="10">GPIO 9 (MISO)</text>
    <text x="328" y="13" text-anchor="start" fill="#888" font-size="10">21</text>
    <text x="372" y="13" text-anchor="end" fill="#888" font-size="10">22</text>
    <rect x="380" y="0" width="80" height="18" fill="#7FBF6E"/>
    <text x="420" y="13" text-anchor="middle" fill="#0A0A0B" font-size="11" font-weight="bold">GPIO 25</text>
  </g>

  <g transform="translate(0, 362)">
    <rect x="240" y="0" width="80" height="18" fill="#fcd34d"/>
    <text x="280" y="13" text-anchor="middle" fill="#0A0A0B" font-size="10">GPIO 11 (SCLK)</text>
    <text x="328" y="13" text-anchor="start" fill="#888" font-size="10">23</text>
    <text x="372" y="13" text-anchor="end" fill="#888" font-size="10">24</text>
    <rect x="380" y="0" width="80" height="18" fill="#fcd34d"/>
    <text x="420" y="13" text-anchor="middle" fill="#0A0A0B" font-size="10">GPIO 8 (CE0)</text>
  </g>

  <g transform="translate(0, 384)">
    <rect x="240" y="0" width="80" height="18" fill="#444"/>
    <text x="280" y="13" text-anchor="middle" fill="#EDEDED" font-size="11" font-weight="bold">GND</text>
    <text x="328" y="13" text-anchor="start" fill="#888" font-size="10">25</text>
    <text x="372" y="13" text-anchor="end" fill="#888" font-size="10">26</text>
    <rect x="380" y="0" width="80" height="18" fill="#fcd34d"/>
    <text x="420" y="13" text-anchor="middle" fill="#0A0A0B" font-size="10">GPIO 7 (CE1)</text>
  </g>

  <g transform="translate(0, 406)">
    <rect x="240" y="0" width="80" height="18" fill="#888" opacity="0.4"/>
    <text x="280" y="13" text-anchor="middle" fill="#EDEDED" font-size="10">Reserved</text>
    <text x="328" y="13" text-anchor="start" fill="#888" font-size="10">27</text>
    <text x="372" y="13" text-anchor="end" fill="#888" font-size="10">28</text>
    <rect x="380" y="0" width="80" height="18" fill="#888" opacity="0.4"/>
    <text x="420" y="13" text-anchor="middle" fill="#EDEDED" font-size="10">Reserved</text>
  </g>

  <g transform="translate(0, 428)">
    <rect x="240" y="0" width="80" height="18" fill="#7FBF6E"/>
    <text x="280" y="13" text-anchor="middle" fill="#0A0A0B" font-size="11" font-weight="bold">GPIO 5</text>
    <text x="328" y="13" text-anchor="start" fill="#888" font-size="10">29</text>
    <text x="372" y="13" text-anchor="end" fill="#888" font-size="10">30</text>
    <rect x="380" y="0" width="80" height="18" fill="#444"/>
    <text x="420" y="13" text-anchor="middle" fill="#EDEDED" font-size="11" font-weight="bold">GND</text>
  </g>

  <g transform="translate(0, 450)">
    <rect x="240" y="0" width="80" height="18" fill="#7FBF6E"/>
    <text x="280" y="13" text-anchor="middle" fill="#0A0A0B" font-size="11" font-weight="bold">GPIO 6</text>
    <text x="328" y="13" text-anchor="start" fill="#888" font-size="10">31</text>
    <text x="372" y="13" text-anchor="end" fill="#888" font-size="10">32</text>
    <rect x="380" y="0" width="80" height="18" fill="#7FBF6E"/>
    <text x="420" y="13" text-anchor="middle" fill="#0A0A0B" font-size="11" font-weight="bold">GPIO 12</text>
  </g>

  <g transform="translate(0, 472)">
    <rect x="240" y="0" width="80" height="18" fill="#7FBF6E"/>
    <text x="280" y="13" text-anchor="middle" fill="#0A0A0B" font-size="11" font-weight="bold">GPIO 13</text>
    <text x="328" y="13" text-anchor="start" fill="#888" font-size="10">33</text>
    <text x="372" y="13" text-anchor="end" fill="#888" font-size="10">34</text>
    <rect x="380" y="0" width="80" height="18" fill="#444"/>
    <text x="420" y="13" text-anchor="middle" fill="#EDEDED" font-size="11" font-weight="bold">GND</text>
  </g>

  <g transform="translate(0, 494)">
    <rect x="240" y="0" width="80" height="18" fill="#7FBF6E"/>
    <text x="280" y="13" text-anchor="middle" fill="#0A0A0B" font-size="11" font-weight="bold">GPIO 19</text>
    <text x="328" y="13" text-anchor="start" fill="#888" font-size="10">35</text>
    <text x="372" y="13" text-anchor="end" fill="#888" font-size="10">36</text>
    <rect x="380" y="0" width="80" height="18" fill="#7FBF6E"/>
    <text x="420" y="13" text-anchor="middle" fill="#0A0A0B" font-size="11" font-weight="bold">GPIO 16</text>
  </g>

  <g transform="translate(0, 516)">
    <rect x="240" y="0" width="80" height="18" fill="#7FBF6E"/>
    <text x="280" y="13" text-anchor="middle" fill="#0A0A0B" font-size="11" font-weight="bold">GPIO 26</text>
    <text x="328" y="13" text-anchor="start" fill="#888" font-size="10">37</text>
    <text x="372" y="13" text-anchor="end" fill="#888" font-size="10">38</text>
    <rect x="380" y="0" width="80" height="18" fill="#7FBF6E"/>
    <text x="420" y="13" text-anchor="middle" fill="#0A0A0B" font-size="11" font-weight="bold">GPIO 20</text>
  </g>

  <g transform="translate(0, 538)">
    <rect x="240" y="0" width="80" height="18" fill="#444"/>
    <text x="280" y="13" text-anchor="middle" fill="#EDEDED" font-size="11" font-weight="bold">GND</text>
    <text x="328" y="13" text-anchor="start" fill="#888" font-size="10">39</text>
    <text x="372" y="13" text-anchor="end" fill="#888" font-size="10">40</text>
    <rect x="380" y="0" width="80" height="18" fill="#7FBF6E"/>
    <text x="420" y="13" text-anchor="middle" fill="#0A0A0B" font-size="11" font-weight="bold">GPIO 21</text>
  </g>

  <text x="685" y="572" fill="#888" font-size="8" text-anchor="end" opacity="0.6" font-style="italic">forge · N06 · 完整版查 pinout.xyz</text>
</svg>
